# xmcd CD database file
#
# Track frame offsets:
#	150
#	25134
#	46685
#	69137
#	87035
#	111200
#	129987
#	153977
#	167580
#	187497
#	209353
#	231516
#	245796
#	260367
#
# Disc length: 3747 seconds
#
# Revision: 0
# Processed by: cddbd v1.5.2PL0 Copyright (c) Steve Scherf et al.
# Submitted via: CDex 1.51
#
DISCID=bb0ea10e
DTITLE=Narvik Traditional Jazz Band - Timeless
DYEAR=2007
DGENRE=Jazz
TTITLE0=Livery Stable Blues
TTITLE1=Fidgety Feet
TTITLE2=Then It Chabged
TTITLE3=Original Dixieland One Step
TTITLE4=Float Me Down The River
TTITLE5=Hiawatha Rag
TTITLE6=After You've Gone
TTITLE7=Cornet Shop Suey
TTITLE8=Farewell Blues
TTITLE9=Angry
TTITLE10=Big Butter And Egg Man
TTITLE11=Wolverine Blues
TTITLE12=Sheik Of Araby
TTITLE13=Black And Blue
EXTD=YEAR: 2007
EXTT0=
EXTT1=
EXTT2=
EXTT3=
EXTT4=
EXTT5=
EXTT6=
EXTT7=
EXTT8=
EXTT9=
EXTT10=
EXTT11=
EXTT12=
EXTT13=
PLAYORDER=
